<svg id="Camada_1" data-name="Camada 1" xmlns="http://www.w3.org/2000/svg" xmlns:xlink="http://www.w3.org/1999/xlink" viewBox="0 0 265.67 314.84"><defs><style>.cls-1{fill:url(#New_Gradient_Swatch_copy_9);}.cls-2{fill:#ff5bce;}</style><linearGradient id="New_Gradient_Swatch_copy_9" x1="28" y1="133.96" x2="218.66" y2="133.96" gradientUnits="userSpaceOnUse"><stop offset="0.04" stop-color="#9f19ab"/><stop offset="0.24" stop-color="#ae25b1"/><stop offset="0.65" stop-color="#d744bf"/><stop offset="1" stop-color="#ff63ce"/></linearGradient></defs><title>logo-gb</title><path class="cls-1" d="M110.62,247.4c3.27-15.52,6.17-29.35,9.24-43.92-9.22,2.17-17.35,4.52-25.64,6-41.95,7.4-71.4-21.7-65.46-64.22,3.74-26.75,16.1-49.7,31.53-71.08,27.79-38.52,65.11-62.75,112-71.41a49,49,0,0,1,20.51,1c9.06,2.33,14,9.6,12.48,18.89-1.43,8.73-4.46,17.28-7.7,25.55-.75,1.91-5.57,3.69-7.87,3.09-2-.51-4.3-4.67-4.12-7C186,39.05,188,34,189.08,28.8c2-9.56-.46-12.36-10.25-10.57A163.06,163.06,0,0,0,115.1,44.88C81,68.4,56,98.93,45.6,139.77,43.76,147,43.66,155,44.48,162.45,46.74,183.08,61,196,81.64,194.26c12.93-1.1,25.63-5.88,38.17-9.84,2.54-.8,4.77-5.09,5.64-8.19,2.24-8,3.72-16.14,5.34-24.27,1.52-7.59,6.05-10.24,14.59-9-1.36,9.74-2.66,19-4.24,30.28,22.35-13.4,36.41-31.37,49.27-54.76-7,.61-11.24.26-15,1.42-14.56,4.48-28.92,9.62-43.46,14.16-9.06,2.83-8.63,10.69-10.21,17.6-1.09,4.82-1.29,10.19-8.71,9.56-5.23-.45-8.2-2.34-7.5-8,.93-7.56,1.38-15.24,3.08-22.62.7-3,3.62-6.94,6.4-7.9,22.49-7.74,45.15-15,67.87-22.06,3.66-1.13,7.94-.93,11.85-.53,11.76,1.2,18.14,10.54,12.95,21.2-5.88,12.11-13.81,23.24-21,34.7-1.69,2.68-4,5-6.7,8.2,2.48.28,3.69.47,4.9.54,29.83,1.69,41.3,20.41,28.73,47.65-25.75,55.76-77.6,62.69-124.8,44.27-2.21-.86-5-6.42-4.18-7.63,1.94-3,5.87-6.57,8.91-6.49C98.89,242.72,104.16,245.42,110.62,247.4Zm18,1.63c31.6,4.15,62.78-17,72.54-48.13,3.88-12.37-.52-19-13.69-20-16.7-1.3-32.15,2.9-46.21,11.82a11.47,11.47,0,0,0-4.71,6.87C133.64,215.82,131.24,232.12,128.58,249Z" transform="translate(-2.71 -2.09)"/><path class="cls-2" d="M5.6,290.7l5,22.39,5.59-17.51a3.57,3.57,0,0,1,.79-1.47,1.62,1.62,0,0,1,1.2-.46,1.7,1.7,0,0,1,1.21.46,3.48,3.48,0,0,1,.79,1.47l5.39,17.5,5-22.38h2.79l-5.6,24.21c-.3,1.34-1,2-2.06,2a1.77,1.77,0,0,1-1.27-.49,3.56,3.56,0,0,1-.83-1.52l-5.45-17.54-5.6,17.54a3.54,3.54,0,0,1-.82,1.52,1.81,1.81,0,0,1-1.28.49c-1.06,0-1.75-.67-2.06-2L2.71,290.7Z" transform="translate(-2.71 -2.09)"/><path class="cls-2" d="M54,290.79V293H47.53a20,20,0,0,0-2.07.08,6.14,6.14,0,0,0-1.48.3,2.87,2.87,0,0,0-1,.56,2.35,2.35,0,0,0-.61.92,5.16,5.16,0,0,0-.3,1.3c0,.48-.07,1.08-.07,1.81v4.27H53.51v2.33H42v4.79c0,.72,0,1.32.07,1.8a4.76,4.76,0,0,0,.31,1.3,2.45,2.45,0,0,0,.6.92,3,3,0,0,0,1,.55,6.14,6.14,0,0,0,1.48.3c.55.05,1.24.07,2.07.07H54v2.27c-1.88.09-4,.13-6.39.13-.76,0-1.39,0-1.88,0s-1.06-.07-1.72-.15a7.93,7.93,0,0,1-1.62-.35,7.21,7.21,0,0,1-1.32-.64,3.35,3.35,0,0,1-1.09-1,5.5,5.5,0,0,1-.65-1.5,7.43,7.43,0,0,1-.26-2V296.38a7.56,7.56,0,0,1,.26-2.05,5.5,5.5,0,0,1,.65-1.5,3.58,3.58,0,0,1,1.09-1,7.29,7.29,0,0,1,1.32-.65,7.78,7.78,0,0,1,1.62-.35c.65-.08,1.23-.13,1.72-.15s1.13,0,1.88,0Q50.32,290.63,54,290.79Z" transform="translate(-2.71 -2.09)"/><path class="cls-2" d="M68.38,290.43c.76,0,1.47,0,2.11.06a18.94,18.94,0,0,1,2,.24,11.19,11.19,0,0,1,1.9.48A7.74,7.74,0,0,1,76,292a5.45,5.45,0,0,1,1.3,1.17,5.09,5.09,0,0,1,.82,1.63,6.83,6.83,0,0,1,.31,2.14c0,3.35-1.28,5.49-3.83,6.44a6.77,6.77,0,0,1,1.71.81,5.72,5.72,0,0,1,1.33,1.28,5.63,5.63,0,0,1,.91,2,11,11,0,0,1,.31,2.77,8,8,0,0,1-.27,2.15,5.53,5.53,0,0,1-.76,1.64,5,5,0,0,1-1.21,1.21,7.75,7.75,0,0,1-1.55.84,10.83,10.83,0,0,1-1.88.52,16.8,16.8,0,0,1-2.09.26c-.68,0-1.44.08-2.26.08a52.41,52.41,0,0,1-8.41-.63V291A50.42,50.42,0,0,1,68.38,290.43Zm.18,14H63.3v9.77a45.72,45.72,0,0,0,5.38.34c.68,0,1.28,0,1.8-.05a14.89,14.89,0,0,0,1.59-.18,6.94,6.94,0,0,0,1.37-.36,5,5,0,0,0,1.08-.6,3,3,0,0,0,.83-.9,4.79,4.79,0,0,0,.5-1.25,7,7,0,0,0,.18-1.66,6.53,6.53,0,0,0-.19-1.66,4.23,4.23,0,0,0-.54-1.27,3.45,3.45,0,0,0-.87-.92,5.18,5.18,0,0,0-1.12-.63,6.9,6.9,0,0,0-1.4-.38,12.56,12.56,0,0,0-1.59-.2C69.8,304.49,69.21,304.47,68.56,304.47Zm-5.25-2.18h5.25a23.45,23.45,0,0,0,2.39-.11,8.85,8.85,0,0,0,1.93-.42,4.19,4.19,0,0,0,1.51-.84,3.74,3.74,0,0,0,.91-1.4,6.55,6.55,0,0,0,.15-3.65,3.91,3.91,0,0,0-.51-1.17,3.06,3.06,0,0,0-.85-.83,5.19,5.19,0,0,0-1.1-.56,6.91,6.91,0,0,0-1.36-.34c-.53-.08-1-.13-1.53-.16s-1.07,0-1.72,0a39.59,39.59,0,0,0-5.07.34Z" transform="translate(-2.71 -2.09)"/><path class="cls-2" d="M97.48,316.31V291a50.13,50.13,0,0,1,7.89-.59,24.11,24.11,0,0,1,2.65.13,13.47,13.47,0,0,1,2.2.41,11.23,11.23,0,0,1,1.81.65,6.91,6.91,0,0,1,1.45.93,7.73,7.73,0,0,1,1.11,1.19,6.9,6.9,0,0,1,.84,1.47,13.75,13.75,0,0,1,.58,1.71,14.33,14.33,0,0,1,.37,2c.1.74.16,1.48.2,2.24s0,1.6,0,2.52,0,1.76,0,2.52-.1,1.5-.2,2.24a14.33,14.33,0,0,1-.37,2,13.75,13.75,0,0,1-.58,1.71,7.15,7.15,0,0,1-.84,1.47,7.24,7.24,0,0,1-1.11,1.18,6.2,6.2,0,0,1-1.45.93,10.35,10.35,0,0,1-1.81.66,13.47,13.47,0,0,1-2.2.41c-.81.08-1.69.13-2.65.13A48.18,48.18,0,0,1,97.48,316.31Zm7.12-23.48a35.05,35.05,0,0,0-4.27.32V314.2a34,34,0,0,0,4.27.33q5.09,0,7.17-2a7.08,7.08,0,0,0,1.8-4.21,38,38,0,0,0,.19-4.59,37.4,37.4,0,0,0-.21-4.75,6.68,6.68,0,0,0-1.9-4.16C110.26,293.47,107.91,292.83,104.6,292.83Z" transform="translate(-2.71 -2.09)"/><path class="cls-2" d="M138.48,290.79V293H132a20.36,20.36,0,0,0-2.08.08,6.35,6.35,0,0,0-1.48.3,3.06,3.06,0,0,0-1,.56,2.45,2.45,0,0,0-.6.92,4.76,4.76,0,0,0-.31,1.3c0,.48-.07,1.08-.07,1.81v4.27h11.53v2.33H126.41v4.79c0,.72,0,1.32.07,1.8a4.76,4.76,0,0,0,.32,1.3,2.45,2.45,0,0,0,.6.92,3.07,3.07,0,0,0,1,.55,6.35,6.35,0,0,0,1.48.3c.56.05,1.25.07,2.08.07h6.51v2.27q-2.83.13-6.4.13c-.75,0-1.38,0-1.87,0s-1.06-.07-1.72-.15a7.63,7.63,0,0,1-1.62-.35,7.28,7.28,0,0,1-1.33-.64,3.31,3.31,0,0,1-1.08-1,5.5,5.5,0,0,1-.66-1.5,7.45,7.45,0,0,1-.25-2V296.38a7.57,7.57,0,0,1,.25-2.05,5.5,5.5,0,0,1,.66-1.5,3.54,3.54,0,0,1,1.08-1,7.36,7.36,0,0,1,1.33-.65,7.67,7.67,0,0,1,1.61-.35c.66-.08,1.23-.13,1.73-.15s1.12,0,1.87,0Q134.76,290.63,138.48,290.79Z" transform="translate(-2.71 -2.09)"/><path class="cls-2" d="M154.07,292.87c-.69,0-1.31,0-1.85.06a14.31,14.31,0,0,0-1.67.2,5.56,5.56,0,0,0-1.47.43,4.83,4.83,0,0,0-1.12.71,2.69,2.69,0,0,0-.76,1.08,4.1,4.1,0,0,0-.26,1.5A9.88,9.88,0,0,0,147,298a3.51,3.51,0,0,0,.25.94,4.63,4.63,0,0,0,.39.74,2.37,2.37,0,0,0,.61.62,7.9,7.9,0,0,0,.79.5,6.08,6.08,0,0,0,1.05.46c.45.16.87.31,1.26.42l1.55.46a24.62,24.62,0,0,1,2.39.8,12.25,12.25,0,0,1,2,1,6.45,6.45,0,0,1,1.56,1.39,5.93,5.93,0,0,1,1,1.84,7.94,7.94,0,0,1,.35,2.42,8.64,8.64,0,0,1-.6,3.39,5.25,5.25,0,0,1-1.8,2.27,8,8,0,0,1-2.87,1.25,17.45,17.45,0,0,1-3.94.4,34,34,0,0,1-6.64-.62l.28-2.34a42.66,42.66,0,0,0,6.25.49,18.47,18.47,0,0,0,2.09-.11,7.69,7.69,0,0,0,1.73-.43,3.88,3.88,0,0,0,1.37-.84,3.62,3.62,0,0,0,.84-1.36,5.53,5.53,0,0,0,.32-2,5.35,5.35,0,0,0-.1-1.1,3,3,0,0,0-.31-.92,4.57,4.57,0,0,0-.47-.75,2.77,2.77,0,0,0-.68-.63c-.28-.2-.55-.37-.81-.52a8.12,8.12,0,0,0-1-.46c-.4-.15-.77-.29-1.11-.4s-.77-.25-1.27-.4q-1.11-.33-1.86-.6c-.51-.17-1-.38-1.6-.63a8.12,8.12,0,0,1-1.37-.74,8.28,8.28,0,0,1-1-.89,4.41,4.41,0,0,1-.81-1.14,7.28,7.28,0,0,1-.46-1.43,9,9,0,0,1-.17-1.79,8.45,8.45,0,0,1,.57-3.28,4.82,4.82,0,0,1,1.74-2.14,7.92,7.92,0,0,1,2.76-1.15,18,18,0,0,1,3.79-.35,38.44,38.44,0,0,1,6.56.59l-.26,2.3A35.66,35.66,0,0,0,154.07,292.87Z" transform="translate(-2.71 -2.09)"/><path class="cls-2" d="M166.28,316.66v-26h2.86v26Z" transform="translate(-2.71 -2.09)"/><path class="cls-2" d="M187.32,305.35V303h7.55v9.59a5,5,0,0,1-.13,1.21,4.17,4.17,0,0,1-.36,1,2.64,2.64,0,0,1-.61.73,4.56,4.56,0,0,1-.8.55,4.46,4.46,0,0,1-1,.38c-.4.1-.79.18-1.15.24a13,13,0,0,1-1.33.14c-.52,0-1,.06-1.43.07l-1.58,0a18.09,18.09,0,0,1-3.2-.26,10.68,10.68,0,0,1-2.52-.75,6.2,6.2,0,0,1-1.89-1.31,8.16,8.16,0,0,1-1.33-1.84,9.41,9.41,0,0,1-.87-2.44,21.09,21.09,0,0,1-.46-3c-.1-1.07-.14-2.28-.14-3.64s0-2.61.14-3.68a21.24,21.24,0,0,1,.46-3,9.55,9.55,0,0,1,.87-2.44,7.82,7.82,0,0,1,1.33-1.82,6.18,6.18,0,0,1,1.89-1.3,11.18,11.18,0,0,1,2.52-.74,19.16,19.16,0,0,1,3.2-.25,44,44,0,0,1,7.62.59l-.25,2.3a46.75,46.75,0,0,0-6.25-.44,15.61,15.61,0,0,0-3,.25,9.94,9.94,0,0,0-2.2.65,4.25,4.25,0,0,0-1.55,1.16,6.86,6.86,0,0,0-1,1.53,7.33,7.33,0,0,0-.57,2,22.86,22.86,0,0,0-.25,2.36c0,.76-.06,1.7-.06,2.83s0,2.05.06,2.8a23,23,0,0,0,.26,2.36,7.62,7.62,0,0,0,.57,2,6.91,6.91,0,0,0,1,1.54,4.25,4.25,0,0,0,1.55,1.16,9.89,9.89,0,0,0,2.2.67,16.43,16.43,0,0,0,3,.25,12.1,12.1,0,0,0,1.57-.09,7,7,0,0,0,1.16-.21,2.28,2.28,0,0,0,.8-.37,3,3,0,0,0,.51-.46,1.64,1.64,0,0,0,.27-.61,3,3,0,0,0,.12-.67c0-.2,0-.46,0-.78v-5.95Z" transform="translate(-2.71 -2.09)"/><path class="cls-2" d="M206,292.29l12.79,20.59V290.7h2.63v24.19a2.22,2.22,0,0,1-.46,1.54,1.72,1.72,0,0,1-1.3.5,2.19,2.19,0,0,1-1.35-.45,5.16,5.16,0,0,1-1.19-1.43l-12.78-20.6v22.21h-2.63V292.47a2.17,2.17,0,0,1,.48-1.54,1.68,1.68,0,0,1,1.28-.5,2.14,2.14,0,0,1,1.34.46A5.08,5.08,0,0,1,206,292.29Z" transform="translate(-2.71 -2.09)"/><path class="cls-2" d="M243.87,290.79V293h-6.51a20.23,20.23,0,0,0-2.08.08,6.25,6.25,0,0,0-1.48.3,3.06,3.06,0,0,0-1,.56,2.34,2.34,0,0,0-.6.92,4.76,4.76,0,0,0-.31,1.3c-.05.48-.07,1.08-.07,1.81v4.27h11.53v2.33H231.8v4.79c0,.72,0,1.32.07,1.8a4.76,4.76,0,0,0,.31,1.3,2.35,2.35,0,0,0,.61.92,3.07,3.07,0,0,0,1,.55,6.25,6.25,0,0,0,1.48.3c.55.05,1.25.07,2.08.07h6.51v2.27q-2.84.13-6.4.13c-.76,0-1.38,0-1.87,0s-1.06-.07-1.72-.15a7.63,7.63,0,0,1-1.62-.35,7,7,0,0,1-1.33-.64,3.45,3.45,0,0,1-1.09-1,5.5,5.5,0,0,1-.65-1.5,7.45,7.45,0,0,1-.25-2V296.38a7.57,7.57,0,0,1,.25-2.05,5.5,5.5,0,0,1,.65-1.5,3.7,3.7,0,0,1,1.09-1,7.06,7.06,0,0,1,1.33-.65,7.67,7.67,0,0,1,1.61-.35c.66-.08,1.23-.13,1.73-.15s1.12,0,1.87,0C239.25,290.63,241.39,290.68,243.87,290.79Z" transform="translate(-2.71 -2.09)"/><path class="cls-2" d="M253.21,316.66h-2.85V291a49.35,49.35,0,0,1,7.92-.61c.85,0,1.62,0,2.31.07a17.91,17.91,0,0,1,2.1.29,10.58,10.58,0,0,1,1.89.57,7.13,7.13,0,0,1,1.55.94,5.16,5.16,0,0,1,1.21,1.39,7.06,7.06,0,0,1,.76,1.92,10.7,10.7,0,0,1,.27,2.52,10.47,10.47,0,0,1-.44,3.23,5.69,5.69,0,0,1-1.31,2.27,6.58,6.58,0,0,1-2,1.4,10.14,10.14,0,0,1-2.64.74l6.36,10.89H265L259,306h-.4q-1.95,0-5.37-.18Zm0-23.55v10.31a47.12,47.12,0,0,0,5.07.24,18.55,18.55,0,0,0,2.52-.15,8.23,8.23,0,0,0,2-.53,4.31,4.31,0,0,0,1.5-1,4.24,4.24,0,0,0,.89-1.58,7,7,0,0,0,.32-2.26,6.06,6.06,0,0,0-.69-3.12,4.1,4.1,0,0,0-2.25-1.7,12.7,12.7,0,0,0-4.17-.55A39.85,39.85,0,0,0,253.21,293.11Z" transform="translate(-2.71 -2.09)"/></svg>